<svg id="Layer_2" data-name="Layer 2" xmlns="http://www.w3.org/2000/svg" xmlns:xlink="http://www.w3.org/1999/xlink" viewBox="0 0 400 300" width="406" height="306" class="illustration styles_illustrationTablet__1DWOa"><defs><linearGradient id="linear-gradient" x1="266.17" y1="217.86" x2="288.43" y2="180.31" gradientUnits="userSpaceOnUse"><stop offset="0" stop-color="#ffc2a4"></stop><stop offset="1" stop-color="#dd6f31"></stop></linearGradient><linearGradient id="linear-gradient-2" x1="137.09" y1="247.01" x2="180.44" y2="207.41" xlink:href="#linear-gradient"></linearGradient><linearGradient id="linear-gradient-3" x1="31.47" y1="186.02" x2="49.81" y2="173.25" xlink:href="#linear-gradient"></linearGradient></defs><title>PP</title><path d="M194.28,291.14,14.56,184.93C8.84,181.71,3.93,176.44,9.51,173L189.88,69c2.71-1.68,6.82-2.78,9.57-1.18L388.11,177.34c5.72,3.32,6.75,12.6,1,15.93L218,291A23.9,23.9,0,0,1,194.28,291.14Z" fill="#ffc2a4"></path><path d="M251.72,170l-4.72.48-28,17.36c-11.59,9.34-.32,10.69,5.64,14.56,3.48,2.26,58.54,38.6,62,40.83l45.37-24.09C323.9,214.42,259.79,174.82,251.72,170Z" fill="url(#linear-gradient)"></path><ellipse cx="324.8" cy="217.85" rx="7.73" ry="3.63" fill="#484887"></ellipse><polyline points="332.53 213.24 332.53 217.85 317.07 217.85 317.07 213.24" fill="#484887"></polyline><ellipse cx="324.8" cy="213.24" rx="7.73" ry="3.63" fill="#6969bc"></ellipse><path d="M326.81,146.42v65.19s-1.71,2.94-4,0V144.22S323.15,142.31,326.81,146.42Z" fill="#484887"></path><ellipse cx="249.01" cy="177.96" rx="7.73" ry="3.63" fill="#484887"></ellipse><polyline points="256.75 173.34 256.75 177.96 241.28 177.96 241.28 173.34" fill="#484887"></polyline><ellipse cx="249.01" cy="173.34" rx="7.73" ry="3.63" fill="#6969bc"></ellipse><path d="M251,106.53v65.19s-1.71,2.94-4,0V104.33S247.36,102.42,251,106.53Z" fill="#484887"></path><path d="M336.66,91.49,243.55,38.8a4.91,4.91,0,0,0-7.33,4.28v57.22a4.91,4.91,0,0,0,2.49,4.28l93.11,52.69a4.91,4.91,0,0,0,7.33-4.28V95.76A4.91,4.91,0,0,0,336.66,91.49Z" fill="#384674"></path><path d="M249,98S255.88,71.72,268,78.59s6.39,34.34,14.92,33.87,18.24-18,25.58-14.43,7.11,35.42,16.34,40.42" fill="#fff"></path><polyline points="249.79 63.39 259.68 93.81 277.85 81.69 285.6 107.95 299.5 100.83 310.8 122.79 327.22 122.33" fill="none" stroke="#42210b" stroke-miterlimit="10" stroke-width="0.75"></polyline><ellipse cx="327.22" cy="122.33" rx="2.1" ry="3.31" transform="translate(-12.5 40.92) rotate(-7.02)" fill="#89562c"></ellipse><ellipse cx="249.79" cy="63.39" rx="2.1" ry="3.31" transform="translate(-5.88 31.01) rotate(-7.02)" fill="#89562c"></ellipse><path d="M76.45,116.13c.07.15.45,1.57.75,1.27s1.87.38,1.87.38l4.38-5.57-.58-1.82H78.92" fill="#384674"></path><path d="M97.6,92.14,98,90.69l4.6-2.51V80.34c0-.15-4.45,2.62-4.45,2.62L98,82.52a10.52,10.52,0,0,0-1.35-3.39l3.24-6L95.73,70l-3.08,6.17,0,0a7,7,0,0,0-3.4.06V70.33L83.34,73.6v6.2a26.06,26.06,0,0,0-3.14,3.62l-3.55-2.27-4,7.63,3.18,2.53-.27,1.28a35,35,0,0,0-1,4.12l-4.72,2.6v7.81l4.5-2.68a10.12,10.12,0,0,0,1.45,4l-3.37,5.72,4.27,3.23,3-5.89h3.73v5.89L89,114v-5.79a23.22,23.22,0,0,0,3.39-4.2l3.38,2.31,4.08-7.79L96.5,96l.33-1.17C97.13,93.92,97.39,93,97.6,92.14Z" fill="#384674"></path><polyline points="108.28 83.6 103.07 80.45 101.77 82.38 103.79 86.59" fill="#384674"></polyline><polyline points="101.47 109.56 97.61 107.96 97.61 105.63" fill="#384674"></polyline><polygon points="89.07 120.66 83.41 117.4 84.85 113.12 89.94 114.61 89.07 120.66" fill="#384674"></polygon><polygon points="95.73 70.01 101.39 73.27 98.28 79.46 94.89 79.52 94.1 73.27 95.73 70.01" fill="#384674"></polygon><ellipse cx="92.26" cy="97.02" rx="4.39" ry="2.55" transform="translate(-31.78 147.4) rotate(-68.55)" fill="#384674"></ellipse><polygon points="83.34 73.6 89 76.86 94.89 73.59 89.22 70.33 83.34 73.6" fill="#384674"></polygon><polygon points="82.3 84.41 76.64 81.14 72.63 88.78 78.29 92.04 82.3 84.41" fill="#384674"></polygon><polygon points="72.41 114.17 78.07 117.43 82.34 120.66 76.68 117.4 72.41 114.17" fill="#384674"></polygon><path d="M76.45,116.13c.07.15.45,1.57.75,1.27s1.87.38,1.87.38l4.38-5.57-.58-1.82H78.92" fill="#053855" opacity="0.44"></path><path d="M97.6,92.14,98,90.69l4.6-2.51V80.34c0-.15-4.45,2.62-4.45,2.62L98,82.52a10.52,10.52,0,0,0-1.35-3.39l3.24-6L95.73,70l-3.08,6.17,0,0a7,7,0,0,0-3.4.06V70.33L83.34,73.6v6.2a26.06,26.06,0,0,0-3.14,3.62l-3.55-2.27-4,7.63,3.18,2.53-.27,1.28a35,35,0,0,0-1,4.12l-4.72,2.6v7.81l4.5-2.68a10.12,10.12,0,0,0,1.45,4l-3.37,5.72,4.27,3.23,3-5.89h3.73v5.89L89,114v-5.79a23.22,23.22,0,0,0,3.39-4.2l3.38,2.31,4.08-7.79L96.5,96l.33-1.17C97.13,93.92,97.39,93,97.6,92.14Z" fill="#384674"></path><polyline points="108.28 83.6 103.07 80.45 101.77 82.38 103.79 86.59" fill="#053855" opacity="0.44"></polyline><polyline points="101.47 109.56 97.61 107.96 97.61 105.63" fill="#384674"></polyline><polygon points="89.07 120.66 83.41 117.4 84.85 113.12 89.94 114.61 89.07 120.66" fill="#384674"></polygon><polygon points="95.73 70.01 101.39 73.27 98.28 79.46 94.89 79.52 94.1 73.27 95.73 70.01" fill="#384674"></polygon><ellipse cx="92.26" cy="97.02" rx="4.39" ry="2.55" transform="translate(-31.78 147.4) rotate(-68.55)" fill="#384674"></ellipse><polygon points="82.3 84.41 76.64 81.14 72.63 88.78 78.29 92.04 82.3 84.41" fill="#384674"></polygon><polygon points="72.41 114.17 78.07 117.43 82.34 120.66 76.68 117.4 72.41 114.17" fill="#384674"></polygon><path d="M97.6,92.14,98,90.69l4.6-2.51V80.34c0-.15-4.45,2.62-4.45,2.62L98,82.52a10.52,10.52,0,0,0-1.35-3.39l3.24-6L95.73,70l-3.08,6.17,0,0a7,7,0,0,0-3.4.06V70.33L83.34,73.6v6.2a26.06,26.06,0,0,0-3.14,3.62l-3.55-2.27-4,7.63,3.18,2.53-.27,1.28a35,35,0,0,0-1,4.12l-4.72,2.6v7.81l4.5-2.68a10.12,10.12,0,0,0,1.45,4l-3.37,5.72,4.27,3.23,3-5.89h3.73v5.89L89,114v-5.79a23.22,23.22,0,0,0,3.39-4.2l3.38,2.31,4.08-7.79L96.5,96l.33-1.17C97.13,93.92,97.39,93,97.6,92.14Z" fill="#053855" opacity="0.44"></path><polyline points="101.47 109.56 97.61 107.96 97.61 105.63" fill="#053855" opacity="0.1"></polyline><polygon points="89.07 120.66 83.41 117.4 84.85 113.12 89.94 114.61 89.07 120.66" fill="#053855" opacity="0.1"></polygon><ellipse cx="92.26" cy="97.02" rx="4.39" ry="2.55" transform="translate(-31.78 147.4) rotate(-68.55)" fill="#053855" opacity="0.1"></ellipse><polygon points="82.3 84.41 76.64 81.14 72.63 88.78 78.29 92.04 82.3 84.41" fill="#053855" opacity="0.1"></polygon><polygon points="72.41 114.17 78.07 117.43 82.34 120.66 76.68 117.4 72.41 114.17" fill="#053855" opacity="0.1"></polygon><polyline points="101.47 109.56 97.61 107.96 97.61 105.63" fill="#053855" opacity="0.1"></polyline><polygon points="89.07 120.66 83.41 117.4 84.85 113.12 89.94 114.61 89.07 120.66" fill="#053855" opacity="0.44"></polygon><path d="M103.26,95.4l.41-1.45,4.6-2.51V83.6c0-.15-4.45,2.62-4.45,2.62l-.21-.44a10.52,10.52,0,0,0-1.35-3.39l3.24-6-4.12-3.13-3.08,6.17,0,0a7,7,0,0,0-3.4.06V73.59L89,76.86v6.2a26.06,26.06,0,0,0-3.14,3.62L82.3,84.41l-4,7.63,3.18,2.53-.27,1.28a35,35,0,0,0-1,4.12l-4.72,2.6v7.81L80,107.7a10.12,10.12,0,0,0,1.45,4l-3.37,5.72,4.27,3.23,3-5.89h3.73v5.89l5.62-3.43v-5.79a23.22,23.22,0,0,0,3.39-4.2l3.38,2.31,4.08-7.79-3.39-2.5.33-1.17C102.79,97.19,103.05,96.29,103.26,95.4Z" fill="#384674"></path><ellipse cx="92.26" cy="97.02" rx="4.39" ry="2.55" transform="translate(-31.78 147.4) rotate(-68.55)" fill="#053855" opacity="0.44"></ellipse><polygon points="72.41 114.17 78.07 117.43 82.34 120.66 76.68 117.4 72.41 114.17" fill="#053855" opacity="0.44"></polygon><polygon points="83.34 73.6 89 76.86 94.89 73.59 89.22 70.33 83.34 73.6" fill="#384674"></polygon><polygon points="83.34 73.58 88.98 76.86 94.89 73.62 89.24 70.33 83.34 73.58" fill="#053855" opacity="0.44"></polygon><polygon points="69.83 99.31 75.49 102.58 75.49 110.39 69.83 107.12 69.83 99.31" fill="#384674"></polygon><polygon points="69.83 99.31 75.49 102.58 75.49 110.39 69.83 107.12 69.83 99.31" fill="#053855" opacity="0.44"></polygon><path d="M181.59,13l-.73,90.36a5.47,5.47,0,0,0,2.68,4.75l40.47,24a3.3,3.3,0,0,0,5-2.84V38.07a5.58,5.58,0,0,0-2.78-4.83l-39.67-23A3.3,3.3,0,0,0,181.59,13Z" fill="#384674"></path><polygon points="219.13 74.54 219.13 109.28 211.93 105.07 211.86 70.34 219.13 74.54" fill="#5fad00"></polygon><polygon points="207.03 61.71 207.16 102.54 199.61 98.16 199.61 57.52 207.03 61.71" fill="#f8997c"></polygon><polygon points="194.84 50.67 194.96 95.72 188.24 91.82 188.24 46.65 194.84 50.67" fill="#fff"></polygon><path d="M218.5,113.54v0A1.66,1.66,0,0,1,216,115L185.07,97.35a1.66,1.66,0,0,1-.84-1.44h0a1.66,1.66,0,0,1,2.48-1.44l30.95,17.63A1.66,1.66,0,0,1,218.5,113.54Z" fill="#ffe427"></path><path d="M225.24,45.73V58.26a1.76,1.76,0,0,1-2.64,1.52L188.55,40.11a1.76,1.76,0,0,1-.88-1.52V26.07a1.76,1.76,0,0,1,2.64-1.52l34.06,19.66A1.76,1.76,0,0,1,225.24,45.73Z" fill="#ffe427"></path><ellipse cx="217.62" cy="48.88" rx="4.44" ry="5.55" transform="translate(-4.59 68.11) rotate(-17.61)" fill="#fff"></ellipse><path d="M212.24,41.13,192.32,30c-.84-.47-1.6.82-.76,1.3l19.91,11.15c.84.47,1.6-.82.76-1.3Z" fill="#7f47dd"></path><path d="M211.49,46l-12.37-6.93c-.84-.47-1.6.82-.76,1.3l12.37,6.93c.84.47,1.6-.82.76-1.3Z" fill="#7f47dd"></path><path d="M107.39,69.31c.06.12.36,1.24.59,1s1.48.3,1.48.3l3.48-4.42-.46-1.44h-3.13" fill="#384674"></path><path d="M124.19,50.25l.33-1.15,3.66-2V40.88c0-.12-3.54,2.08-3.54,2.08l-.17-.35a8.36,8.36,0,0,0-1.07-2.69L126,35.17l-3.27-2.49-2.45,4.9h0a5.57,5.57,0,0,0-2.7,0V32.93l-4.68,2.59v4.92a20.7,20.7,0,0,0-2.5,2.88l-2.82-1.8-3.19,6.06,2.52,2-.22,1a27.79,27.79,0,0,0-.78,3.28L102.13,56v6.2L105.71,60a8,8,0,0,0,1.15,3.18l-2.68,4.55,3.39,2.57L110,65.64h3v4.68l4.46-2.72V63a18.44,18.44,0,0,0,2.69-3.34l2.69,1.84L126,55.31l-2.69-2,.27-.93C123.82,51.67,124,51,124.19,50.25Z" fill="#384674"></path><polyline points="132.67 43.47 128.54 40.97 127.5 42.5 129.1 45.85" fill="#384674"></polyline><polyline points="127.26 64.09 124.2 62.82 124.2 60.97" fill="#384674"></polyline><polygon points="117.42 72.91 112.92 70.32 114.06 66.92 118.11 68.11 117.42 72.91" fill="#384674"></polygon><polygon points="122.71 32.68 127.2 35.27 124.73 40.19 122.04 40.23 121.41 35.27 122.71 32.68" fill="#384674"></polygon><ellipse cx="119.95" cy="54.13" rx="3.49" ry="2.03" transform="translate(25.7 145.97) rotate(-68.55)" fill="#384674"></ellipse><polygon points="112.86 35.53 117.36 38.12 122.04 35.53 117.54 32.93 112.86 35.53" fill="#384674"></polygon><polygon points="112.04 44.12 107.55 41.52 104.36 47.59 108.86 50.18 112.04 44.12" fill="#384674"></polygon><polygon points="104.18 67.75 108.68 70.34 112.07 72.91 107.58 70.32 104.18 67.75" fill="#384674"></polygon><path d="M107.39,69.31c.06.12.36,1.24.59,1s1.48.3,1.48.3l3.48-4.42-.46-1.44h-3.13" fill="#053855" opacity="0.44"></path><path d="M124.19,50.25l.33-1.15,3.66-2V40.88c0-.12-3.54,2.08-3.54,2.08l-.17-.35a8.36,8.36,0,0,0-1.07-2.69L126,35.17l-3.27-2.49-2.45,4.9h0a5.57,5.57,0,0,0-2.7,0V32.93l-4.68,2.59v4.92a20.7,20.7,0,0,0-2.5,2.88l-2.82-1.8-3.19,6.06,2.52,2-.22,1a27.79,27.79,0,0,0-.78,3.28L102.13,56v6.2L105.71,60a8,8,0,0,0,1.15,3.18l-2.68,4.55,3.39,2.57L110,65.64h3v4.68l4.46-2.72V63a18.44,18.44,0,0,0,2.69-3.34l2.69,1.84L126,55.31l-2.69-2,.27-.93C123.82,51.67,124,51,124.19,50.25Z" fill="#384674"></path><polyline points="132.67 43.47 128.54 40.97 127.5 42.5 129.1 45.85" fill="#053855" opacity="0.44"></polyline><polyline points="127.26 64.09 124.2 62.82 124.2 60.97" fill="#384674"></polyline><polygon points="117.42 72.91 112.92 70.32 114.06 66.92 118.11 68.11 117.42 72.91" fill="#384674"></polygon><polygon points="122.71 32.68 127.2 35.27 124.73 40.19 122.04 40.23 121.41 35.27 122.71 32.68" fill="#384674"></polygon><ellipse cx="119.95" cy="54.13" rx="3.49" ry="2.03" transform="translate(25.7 145.97) rotate(-68.55)" fill="#384674"></ellipse><polygon points="112.04 44.12 107.55 41.52 104.36 47.59 108.86 50.18 112.04 44.12" fill="#384674"></polygon><polygon points="104.18 67.75 108.68 70.34 112.07 72.91 107.58 70.32 104.18 67.75" fill="#384674"></polygon><path d="M124.19,50.25l.33-1.15,3.66-2V40.88c0-.12-3.54,2.08-3.54,2.08l-.17-.35a8.36,8.36,0,0,0-1.07-2.69L126,35.17l-3.27-2.49-2.45,4.9h0a5.57,5.57,0,0,0-2.7,0V32.93l-4.68,2.59v4.92a20.7,20.7,0,0,0-2.5,2.88l-2.82-1.8-3.19,6.06,2.52,2-.22,1a27.79,27.79,0,0,0-.78,3.28L102.13,56v6.2L105.71,60a8,8,0,0,0,1.15,3.18l-2.68,4.55,3.39,2.57L110,65.64h3v4.68l4.46-2.72V63a18.44,18.44,0,0,0,2.69-3.34l2.69,1.84L126,55.31l-2.69-2,.27-.93C123.82,51.67,124,51,124.19,50.25Z" fill="#053855" opacity="0.44"></path><polyline points="127.26 64.09 124.2 62.82 124.2 60.97" fill="#053855" opacity="0.1"></polyline><polygon points="117.42 72.91 112.92 70.32 114.06 66.92 118.11 68.11 117.42 72.91" fill="#053855" opacity="0.1"></polygon><ellipse cx="119.95" cy="54.13" rx="3.49" ry="2.03" transform="translate(25.7 145.97) rotate(-68.55)" fill="#053855" opacity="0.1"></ellipse><polygon points="112.04 44.12 107.55 41.52 104.36 47.59 108.86 50.18 112.04 44.12" fill="#053855" opacity="0.1"></polygon><polygon points="104.18 67.75 108.68 70.34 112.07 72.91 107.58 70.32 104.18 67.75" fill="#053855" opacity="0.1"></polygon><polyline points="127.26 64.09 124.2 62.82 124.2 60.97" fill="#053855" opacity="0.1"></polyline><polygon points="117.42 72.91 112.92 70.32 114.06 66.92 118.11 68.11 117.42 72.91" fill="#053855" opacity="0.44"></polygon><path d="M128.69,52.84,129,51.7l3.66-2V43.47c0-.12-3.54,2.08-3.54,2.08l-.17-.35a8.36,8.36,0,0,0-1.07-2.69l2.58-4.75-3.27-2.49-2.45,4.9h0a5.57,5.57,0,0,0-2.7,0V35.53l-4.68,2.59V43a20.7,20.7,0,0,0-2.5,2.88L112,44.12l-3.19,6.06,2.52,2-.22,1a27.79,27.79,0,0,0-.78,3.28l-3.75,2.07v6.2l3.57-2.13a8,8,0,0,0,1.15,3.18l-2.68,4.55,3.39,2.57,2.38-4.68h3v4.68l4.46-2.72v-4.6a18.44,18.44,0,0,0,2.69-3.34l2.69,1.84,3.24-6.19-2.69-2,.27-.93C128.32,54.26,128.52,53.55,128.69,52.84Z" fill="#384674"></path><ellipse cx="119.95" cy="54.13" rx="3.49" ry="2.03" transform="translate(25.7 145.97) rotate(-68.55)" fill="#053855" opacity="0.44"></ellipse><polygon points="104.18 67.75 108.68 70.34 112.07 72.91 107.58 70.32 104.18 67.75" fill="#053855" opacity="0.44"></polygon><polygon points="112.86 35.53 117.36 38.12 122.04 35.53 117.54 32.93 112.86 35.53" fill="#384674"></polygon><polygon points="112.86 35.51 117.35 38.12 122.04 35.54 117.55 32.94 112.86 35.51" fill="#053855" opacity="0.44"></polygon><polygon points="102.14 55.95 106.63 58.54 106.63 64.75 102.14 62.16 102.14 55.95" fill="#384674"></polygon><polygon points="102.14 55.95 106.63 58.54 106.63 64.75 102.14 62.16 102.14 55.95" fill="#053855" opacity="0.44"></polygon><path d="M161.65,207.38c-14.73,8.59-25.26,14.36-47.92,27.3,17.15,10.42,30.44,20,32.37,21.14L197,225.93C193.07,223.85,180,216.45,161.65,207.38Z" fill="url(#linear-gradient-2)"></path><path d="M173.82,173.54c-4.31-3-9.38-4.66-14.86-3.45-5.84,1.28-10.89,5-16.84,5.85-.94.14-4.69-.1-5.27.44-16.55,15.66,29.71,14,29.71,14,4.49-3.68,8.72-7.3,13.17-11C178.39,176.34,176.13,175.15,173.82,173.54Z" fill="#f8997c"></path><path d="M152,196.24l-1.64,47.25c-.06,1.79,2.72,1.79,2.78,0l1.64-47.25C154.89,194.45,152.11,194.45,152,196.24Z" fill="#f8997c"></path><path d="M186.73,221.52q-12.64-12.37-24.15-25.81c-1.17-1.36-3.13.61-2,2q11.5,13.43,24.15,25.81C186,224.75,188,222.78,186.73,221.52Z" fill="#f8997c"></path><path d="M142.39,191.87q-9.81,18.52-18.48,37.6c-.74,1.62,1.66,3,2.4,1.41q8.67-19.08,18.48-37.6C145.63,191.69,143.23,190.28,142.39,191.87Z" fill="#f8997c"></path><path d="M183.92,162.37s6,1.23,7.37,2.58,3.56,7,2.95,8.71-2.33-1-3.07-2.08a36.59,36.59,0,0,0-2.82-3.28,10.49,10.49,0,0,1-5.83-.77" fill="#fcbf81"></path><path d="M185.93,213.53c.87-.89,1.43-1.87,1.13-2.84-.53-1.74-2.89-2.44-4.5-2.35s-3.29.91-4.92,1.4a12.24,12.24,0,0,1-5.34.66,1.19,1.19,0,0,1-.75-.41,3,3,0,0,1-2.16-2L164,206.09s-1.37,11.31-1.32,12.1c.4,6.1,9.51,2.62,9.51,2.62s.32-2.76.41-3.13,3.58.71,5,.49a6.32,6.32,0,0,0,1.87-.87c1.08-.59,2.13-1.23,3.18-1.87S184.85,214.18,185.93,213.53Z" fill="#e55600"></path><path d="M166,171.8c-2,.2-4,.46-6,.74q1.25,19.26,2.77,38.49c5.2,2.13,7.31,1.14,10.54-2.16.61-12.24,1.69-25.06,1.65-37.42C171.93,171.58,169,171.71,166,171.8Z" fill="#34323d"></path><path d="M144.33,168.27s-.86,14.05,6.2,17.19,21.55,1.57,28.67-2.61a77,77,0,0,1,11.56-5.77s1.83-6.15-2.61-8.81-14.26-5.94-23,0" fill="#34323d"></path><path d="M175.31,129.68a11.48,11.48,0,0,1,.78-1.53.16.16,0,0,0,.05.08.2.2,0,0,0,.37.06l.57-.86a1,1,0,0,0,0,.34.86.86,0,0,0,.95.67.85.85,0,0,0,.76-1.07l.26-.3a.85.85,0,0,0,0,.26.75.75,0,0,0,1.23.31c.1-.08.19-.18.28-.27a.63.63,0,0,0,.5,0,19.26,19.26,0,0,0,2.15-.88.33.33,0,0,1-.11-.53,21.5,21.5,0,0,1,2.61-1.81.31.31,0,0,1,.11-.06l.05-.09a2.94,2.94,0,0,0-.14-2.1,2.3,2.3,0,0,0,.47-1.95.35.35,0,0,1-.2-.08,1.59,1.59,0,0,1-.33-.39,2.23,2.23,0,0,1-.37-.67.3.3,0,0,1,.11-.34c-.34-.45-.74-.88-1.09-1.28a8.6,8.6,0,0,0,1.17-4.83.74.74,0,0,0-1.37-.35,15.57,15.57,0,0,0-.91,1.65.62.62,0,0,0-.21.23,91.19,91.19,0,0,1-4.81,8.65c-.3.47-4,5.51-3.54,5.63C174.62,128.41,171.62,135.32,175.31,129.68Zm2.16-2.13s0,0,0-.05a.2.2,0,0,0,.3,0l0,0a.76.76,0,0,0,.63.12.48.48,0,0,1-1-.06Z" fill="#fcbf81"></path><path d="M175.71,128.08a8,8,0,0,0,2-2.24,1.54,1.54,0,0,1,2.13-.6,9,9,0,0,0,.09-1.22c0-2.08,3.27-2.11,3.23,0a7.86,7.86,0,0,1-1.25,4.62,13.24,13.24,0,0,1-3.52,3.11,1.66,1.66,0,0,1-2.46-1.25l-.14-.11A1.63,1.63,0,0,1,175.71,128.08Z" fill="#fcbf81"></path><path d="M180.89,129.32a6.55,6.55,0,0,0,2.74-3.83.18.18,0,0,0,.26.06l1.29-.87a3,3,0,0,0,.73-.59c.47-.6,0-1.29-.19-1.91a.2.2,0,0,0-.07-.09l.18-.3a2.76,2.76,0,0,0,.49-1.6c-.09-.56-.62-.93-.87-1.41a1.25,1.25,0,0,0-.75-1.37c-.69-.31-1.07.21-1.44.72q-1.19,1.62-2.25,3.33c-.14.22.22.42.35.2.39-.62.78-1.23,1.19-1.83a7.61,7.61,0,0,1,1.3-1.82c1.44-.83,1.16,1.16.93,1.67-.14.3-.31.58-.48.87l-1.09,1.92a.19.19,0,0,0,0,0,.18.18,0,0,0,0,.16,5.68,5.68,0,0,1-2.49,6.31C180.46,129.12,180.67,129.47,180.89,129.32Zm2.93-6.57a.18.18,0,0,0-.21,0l0-.13a15.36,15.36,0,0,0,1.76-3.29c.1.13.2.25.3.39a1.23,1.23,0,0,1,.07,1.36C185.45,121.71,184.7,123.25,183.82,122.74Zm-.13,2.46a5.65,5.65,0,0,0,0-2.08c.69.34,1.28-.11,1.71-.68a4.46,4.46,0,0,1,.29.8.84.84,0,0,1-.43.9C184.74,124.52,184.21,124.85,183.69,125.2Z" fill="#34323d"></path><path d="M157.8,135.83s9.43.45,11.89-1.81,6-9.37,6-9.37,6.5,4.18,6.82,6.58-6.79,14-9.95,14.81" fill="#ba3e00"></path><path d="M202.24,222.34c.87-.89,1.43-1.87,1.13-2.84-.53-1.74-2.89-2.44-4.5-2.35s-3.29.91-4.92,1.4a12.24,12.24,0,0,1-5.34.66,1.19,1.19,0,0,1-.75-.41,3,3,0,0,1-2.16-2l-5.35-1.92S179,226.2,179,227c.4,6.1,9.51,2.62,9.51,2.62s.32-2.76.41-3.13,3.58.71,5,.49a6.32,6.32,0,0,0,1.87-.87c1.08-.59,2.13-1.23,3.18-1.87S201.16,223,202.24,222.34Z" fill="#e55600"></path><path d="M181.65,168.62c-1.84-.87-3.77-.78-6-.77.31,4.52.14,6.15.42,10.67l.08,1.2C177,193.1,178,206.47,179,219.83c5.2,2.13,7.31,1.14,10.54-2.16.72-14.24,2.06-29.28,1.54-43.45C188.11,171.24,185.44,170.4,181.65,168.62Z" fill="#34323d"></path><path d="M144.2,165.36c0,.35.07,1.51.12,2.91,2.92,3.85,6.5,6.11,12.11,5.94,4.54-.13,8.33-2.12,11.89-4.57-.44-8.23-1.77-22.28-3.85-32.08-.18-.83-2.33-1.38-3-1.73-1.48-.81-.61-2.2-2.06-3.07a49.7,49.7,0,0,0-6.55-3.19h-.06c-3.62-.05-9.85,2.73-10.22,7.57-.57,7.45.25,11.93.83,19.36C143.69,159.5,143.95,162.46,144.2,165.36Z" fill="#e55600"></path><path d="M156.8,115.49c.48.12,4.49,9.36,2.92,15s-11.1-.16-13.5-4.43S147.78,113.15,156.8,115.49Z" fill="#fcbf81"></path><path d="M156.67,116.78s0,3.05-2.66,4-4.88,1.65-4.74,2.88,4.82-.17,4.84,2.65a21,21,0,0,1-.76,5.63c-.29,1.38-8.3-2.86-10.94-10.09s4-9.15,4.29-9.2.92-2,4.16-2.72,4.15.55,4.15.55a3.93,3.93,0,0,1,4.73.51c3,2.37,2.23,6.7-1.15,8.46Z" fill="#34323d"></path><path d="M158.32,145.42s9.91,18.1,15.39,19.66a67.37,67.37,0,0,0,12,2s.68-5,0-7.18c0,0-8.77-3.95-9.63-6.32s-8.25-19-16.64-20.76" fill="#e55600"></path><path d="M167.44,159.49c-.61-.78-7.48-8.56-7.48-8.56l8.26,16.92Z" fill="#34323d"></path><path d="M179.1,179a20.89,20.89,0,0,1-10.44,7.66c-5.89,1.79-14.46.95-17.55-5.21-5.63-11.21-.34-25.23-6.29-36.13a10.93,10.93,0,0,0-6.9-5.67c-3.86-.84-6.5,2.05-7.9,5.46-2.51,6.11-2.42,13.73-2.29,20.23a110.49,110.49,0,0,0,1.14,15.72s3.6,21.84,31.7,16a42.24,42.24,0,0,0,13.8-5.11,19,19,0,0,0,5.63-5C181.72,184.54,180.58,181.57,179.1,179Z" fill="#384674"></path><path d="M37.7,195.71l25-17.71c-7.31-3.49-8.38-7-14.12-12.66-9.49,5.95-22.4,12.45-33.91,18.34C22.49,187.48,30.33,191.18,37.7,195.71Z" fill="url(#linear-gradient-3)"></path><path d="M51.3,160.94c-4.4-.38-9-1.71-12.27-4.72v13a13.52,13.52,0,0,0,13.52,13.52h0a13.52,13.52,0,0,0,13.52-13.52V156C61.46,157.89,56.22,161.37,51.3,160.94Z" fill="#384674"></path><ellipse cx="52.55" cy="156.14" rx="13.52" ry="7.17" fill="#5ed18d"></ellipse><path d="M52.55,157.36s-9.2-1.35-11.63-16.23C40.92,141.13,48.76,145.46,52.55,157.36Z" fill="#5ed18d"></path><path d="M53.9,155.46s-10.55-18.93,0-31.65A53,53,0,0,1,53.9,155.46Z" fill="#5ed18d"></path><path d="M52.55,143.56s-9.2-1.35-11.63-16.23C40.92,127.33,48.76,131.66,52.55,143.56Z" fill="#5ed18d"></path><path d="M53.67,149.63s-2.3-9,10.48-17C64.15,132.63,63.18,141.54,53.67,149.63Z" fill="#5ed18d"></path><ellipse cx="52.55" cy="156.14" rx="13.52" ry="7.17" fill="#146666"></ellipse><path d="M52.55,157.36s-9.2-1.35-11.63-16.23C40.92,141.13,48.76,145.46,52.55,157.36Z" fill="#5ed18d"></path><path d="M53.9,155.46s-10.55-18.93,0-31.65A53,53,0,0,1,53.9,155.46Z" fill="#5ed18d"></path><path d="M52.55,143.56s-9.2-1.35-11.63-16.23C40.92,127.33,48.76,131.66,52.55,143.56Z" fill="#5ed18d"></path><path d="M53.67,149.63s-2.3-9,10.48-17C64.15,132.63,63.18,141.54,53.67,149.63Z" fill="#5ed18d"></path></svg>