<svg id="Layer_1" data-name="Layer 1" xmlns="http://www.w3.org/2000/svg" xmlns:xlink="http://www.w3.org/1999/xlink" viewBox="0 0 913.49 718.85" width="406" height="306" class="illustration styles_illustrationTablet__1DWOa"><defs><linearGradient id="linear-gradient" x1="427.74" y1="660.98" x2="735.2" y2="-602.71" gradientUnits="userSpaceOnUse"><stop offset="0.01"></stop><stop offset="0.08" stop-opacity="0.69"></stop><stop offset="0.21" stop-opacity="0.32"></stop><stop offset="1" stop-opacity="0"></stop></linearGradient><linearGradient id="linear-gradient-2" x1="623.47" y1="422.28" x2="378.33" y2="88.29" gradientUnits="userSpaceOnUse"><stop offset="0.01" stop-color="#fff"></stop><stop offset="1" stop-color="#fff" stop-opacity="0"></stop></linearGradient><linearGradient id="linear-gradient-3" x1="374.44" y1="489.95" x2="535.3" y2="-171.17" xlink:href="#linear-gradient"></linearGradient><linearGradient id="linear-gradient-4" x1="350.48" y1="137.59" x2="581.84" y2="408.16" xlink:href="#linear-gradient"></linearGradient><linearGradient id="linear-gradient-5" x1="424.7" y1="160.92" x2="477.49" y2="323.87" xlink:href="#linear-gradient"></linearGradient><linearGradient id="linear-gradient-6" x1="242.02" y1="346.25" x2="862.08" y2="361.62" xlink:href="#linear-gradient"></linearGradient></defs><title>4. </title><path d="M525,147.66c-41.79,22-82.69,48.15-125.58,67-63,27.75-132.57,40.44-192.13,75C36.9,388.47-48.26,731.86,187.54,810.81c114.69,38.4,242.84-20.38,360.76-12.45,54.14,3.64,106.76,9.55,161.21,17,54,7.37,113.44,11.3,162.42-17.14,52.66-30.57,78-94.08,83-154.76s-6.6-121.39-9.12-182.23c-2-47,1.44-94.73-8.86-140.65C917,231.93,846,159.8,761.84,125.5c-31.44-12.82-65.14-21-99.09-20.37C613.63,106,568.83,124.59,525,147.66Z" transform="translate(-42.61 -105.1)" fill="#384674" opacity="0.18" style="isolation: isolate;"></path><path d="M539.12,375.2c-102.35,24.95-192.93,14.06-202.27-24.33-.65-2.64-8.68-35.06-8.55-37.84,0-.08,4.39,0,4.42-.13,2.21-37.15,77.46-53.45,172.55-76.66,83.51-20.34,155.15-44.55,185.26-21.73,6.8,5.14,15.28,39,17,46.08C716.9,299,641.49,350.27,539.12,375.2Z" transform="translate(-42.61 -105.1)" fill="#384674"></path><path d="M539.12,375.2c-102.35,24.95-192.93,14.06-202.27-24.33-.65-2.64-9.37-39.17-9.37-39.17,2.21-37.16,82.7-52.25,177.79-75.46,83.51-20.34,161.81-34.43,191.93-11.61,0,0,8.61,28.89,10.33,36C716.9,299,641.49,350.27,539.12,375.2Z" transform="translate(-42.61 -105.1)" fill="url(#linear-gradient)"></path><rect x="90.9" y="334.65" width="790.95" height="288.98" rx="38.64" fill="#384674" opacity="0.29" style="isolation: isolate;"></rect><rect x="74.5" y="319.27" width="790.95" height="288.98" rx="38.64" fill="#fff" style="isolation: isolate;"></rect><path d="M306.5,528.9c0,.5.06,1,.08,1.48,0-.5,0-1,0-1.48Z" transform="translate(-42.61 -105.1)" fill="#384674"></path><path d="M306.58,527.41c0,.5-.08,1-.08,1.49h.11C306.61,528.4,306.59,527.91,306.58,527.41Z" transform="translate(-42.61 -105.1)" fill="#384674"></path><path d="M427.69,528.9c0,.5.06,1,.07,1.48,0-.5,0-1,0-1.48Z" transform="translate(-42.61 -105.1)" fill="#384674"></path><path d="M427.76,527.41c0,.5-.07,1-.07,1.49h.11C427.8,528.4,427.77,527.91,427.76,527.41Z" transform="translate(-42.61 -105.1)" fill="#384674"></path><path d="M271.26,528.9h.11c0-.5-.06-1-.08-1.49C271.29,527.91,271.26,528.4,271.26,528.9Z" transform="translate(-42.61 -105.1)" fill="#384674"></path><path d="M271.29,530.38c0-.5.08-1,.08-1.48h-.11C271.26,529.39,271.29,529.88,271.29,530.38Z" transform="translate(-42.61 -105.1)" fill="#384674"></path><path d="M549,527.41c0,.5-.08,1-.08,1.49H549C549,528.4,549,527.91,549,527.41Z" transform="translate(-42.61 -105.1)" fill="#384674"></path><path d="M392.44,528.9h.12c0-.51-.06-1-.08-1.49C392.47,527.91,392.44,528.4,392.44,528.9Z" transform="translate(-42.61 -105.1)" fill="#384674"></path><path d="M548.87,528.9c0,.5.06,1,.08,1.48,0-.5,0-1,0-1.48Z" transform="translate(-42.61 -105.1)" fill="#384674"></path><path d="M392.48,530.38c0-.5.08-1,.08-1.48h-.12C392.44,529.39,392.47,529.88,392.48,530.38Z" transform="translate(-42.61 -105.1)" fill="#384674"></path><path d="M513.67,530.38c0-.5.07-1,.07-1.48h-.11C513.63,529.39,513.66,529.88,513.67,530.38Z" transform="translate(-42.61 -105.1)" fill="#384674"></path><path d="M669.82,528.9a42.84,42.84,0,0,0,.22,4.41c.08-1.46.13-2.93.13-4.41Z" transform="translate(-42.61 -105.1)" fill="#384674"></path><path d="M670,524.48a42.89,42.89,0,0,0-.22,4.42h.35C670.17,527.41,670.12,525.94,670,524.48Z" transform="translate(-42.61 -105.1)" fill="#384674"></path><path d="M513.63,528.9h.11c0-.5-.06-1-.07-1.49C513.66,527.91,513.63,528.4,513.63,528.9Z" transform="translate(-42.61 -105.1)" fill="#384674"></path><path d="M791.12,528.9c0-.5,0-1,0-1.49,0,.5-.08,1-.08,1.49Z" transform="translate(-42.61 -105.1)" fill="#384674"></path><path d="M634.7,533.31a42.83,42.83,0,0,0,.23-4.41h-.36C634.57,530.38,634.62,531.85,634.7,533.31Z" transform="translate(-42.61 -105.1)" fill="#384674"></path><path d="M634.57,528.9h.36a42.87,42.87,0,0,0-.23-4.42C634.62,525.94,634.57,527.41,634.57,528.9Z" transform="translate(-42.61 -105.1)" fill="#384674"></path><path d="M791,528.9c0,.5.06,1,.08,1.48,0-.5,0-1,0-1.48Z" transform="translate(-42.61 -105.1)" fill="#384674"></path><path d="M755.76,528.9h.11c0-.5-.06-1-.07-1.49C755.79,527.91,755.76,528.4,755.76,528.9Z" transform="translate(-42.61 -105.1)" fill="#384674"></path><path d="M755.8,530.38c0-.5.07-1,.07-1.48h-.11C755.76,529.39,755.79,529.88,755.8,530.38Z" transform="translate(-42.61 -105.1)" fill="#384674"></path><path d="M271.29,527.41a43,43,0,1,0,0,3c0-.5,0-1,0-1.48S271.29,527.91,271.29,527.41Z" transform="translate(-42.61 -105.1)" fill="#384674"></path><path d="M392.48,527.41a43,43,0,0,0-85.9,0c0,.5,0,1,0,1.49s0,1,0,1.48a43,43,0,0,0,85.9,0c0-.5,0-1,0-1.48S392.47,527.91,392.48,527.41Z" transform="translate(-42.61 -105.1)" fill="#384674"></path><path d="M634.7,524.48A43,43,0,0,0,549,527.41c0,.5,0,1,0,1.49s0,1,0,1.48a43,43,0,0,0,85.75,2.93c-.08-1.46-.13-2.93-.13-4.41S634.62,525.94,634.7,524.48Z" transform="translate(-42.61 -105.1)" fill="#384674"></path><path d="M513.67,527.41a43,43,0,0,0-85.91,0c0,.5,0,1,0,1.49s0,1,0,1.48a43,43,0,0,0,85.91,0c0-.5,0-1,0-1.48S513.66,527.91,513.67,527.41Z" transform="translate(-42.61 -105.1)" fill="#384674"></path><path d="M755.8,527.41A43,43,0,0,0,670,524.48c.08,1.46.13,2.93.13,4.42s0,3-.13,4.41a43,43,0,0,0,85.76-2.93c0-.5,0-1,0-1.48S755.79,527.91,755.8,527.41Z" transform="translate(-42.61 -105.1)" fill="#384674"></path><path d="M834,485.87a43,43,0,0,0-42.95,41.54c0,.5,0,1,0,1.49s0,1,0,1.48A43,43,0,1,0,834,485.87Z" transform="translate(-42.61 -105.1)" fill="#384674"></path><path d="M227,528.81h0v-34a33.89,33.89,0,1,0,34,34Z" transform="translate(-42.61 -105.1)" fill="#fff"></path><path d="M348.61,528.81h0v-34a34.33,34.33,0,0,0-17,4.57,34.54,34.54,0,0,0-7.05,5.38,34,34,0,1,0,53.43,41Z" transform="translate(-42.61 -105.1)" fill="#fff"></path><path d="M471.34,528.81h0v-34a34.29,34.29,0,0,0-24,10,34.31,34.31,0,0,0-9.95,24,34.25,34.25,0,0,0,4.57,17,34,34,0,0,0,20.61,15.82,34,34,0,0,0,25.76-3.39Z" transform="translate(-42.61 -105.1)" fill="#fff"></path><path d="M592,528.81v-34a34.33,34.33,0,0,0-17,4.57,34.54,34.54,0,0,0-7,5.38,34,34,0,0,0,24,58v-34Z" transform="translate(-42.61 -105.1)" fill="#fff"></path><path d="M713.53,528.81v-34a34,34,0,0,0-24,58l24-24Z" transform="translate(-42.61 -105.1)" fill="#fff"></path><path d="M833.92,528.81v-34a34.08,34.08,0,0,0-34,34Z" transform="translate(-42.61 -105.1)" fill="#fff"></path><path d="M193.07,640.17h14.42v3.33a18.27,18.27,0,0,0-3.14,3.68,21.35,21.35,0,0,0-2.41,5.35A25.18,25.18,0,0,0,201,658h-4.93a28.42,28.42,0,0,1,1.84-7.3,27.18,27.18,0,0,1,3.95-6.31h-8.78Z" transform="translate(-42.61 -105.1)" fill="#384674"></path><path d="M211.56,640.17h11.73v3.94h-7.95l-.42,2.67a8.39,8.39,0,0,1,1.63-.58,6.81,6.81,0,0,1,1.6-.2,5.94,5.94,0,0,1,4.33,1.62,5.41,5.41,0,0,1,1.66,4.06,6.85,6.85,0,0,1-.85,3.31,5.75,5.75,0,0,1-2.43,2.43,8.5,8.5,0,0,1-4,.84,12.07,12.07,0,0,1-3-.33,6.18,6.18,0,0,1-2.13-1,5.79,5.79,0,0,1-1.43-1.5,7.57,7.57,0,0,1-.91-2.08l5-.55a3,3,0,0,0,.85,1.83,2.25,2.25,0,0,0,1.59.62,2.14,2.14,0,0,0,1.7-.78,3.49,3.49,0,0,0,.67-2.34,3.4,3.4,0,0,0-.67-2.33,2.37,2.37,0,0,0-1.81-.74,3,3,0,0,0-1.38.35,3.93,3.93,0,0,0-1.1.93l-4.21-.61Z" transform="translate(-42.61 -105.1)" fill="#384674"></path><path d="M226.31,644.54a5.24,5.24,0,0,1,.55-2.36,3.79,3.79,0,0,1,1.64-1.72,5.46,5.46,0,0,1,2.63-.6,4.79,4.79,0,0,1,3.52,1.28,5.13,5.13,0,0,1,0,6.8,4.79,4.79,0,0,1-3.52,1.28,5.46,5.46,0,0,1-2.63-.6,3.74,3.74,0,0,1-1.64-1.72A5.21,5.21,0,0,1,226.31,644.54Zm3.41,0a3.76,3.76,0,0,0,.49,2.18,1.06,1.06,0,0,0,.92.45,1,1,0,0,0,.91-.45,3.76,3.76,0,0,0,.49-2.18,3.86,3.86,0,0,0-.49-2.19,1,1,0,0,0-.91-.43,1.06,1.06,0,0,0-.92.43A3.81,3.81,0,0,0,229.72,644.56Zm11.7-4.7H244l-10.28,19h-2.53Zm-2.28,14.3a5.47,5.47,0,0,1,.53-2.36,3.83,3.83,0,0,1,1.66-1.72,5.41,5.41,0,0,1,2.61-.61,4.82,4.82,0,0,1,3.54,1.28,5.17,5.17,0,0,1,0,6.81,4.82,4.82,0,0,1-3.54,1.28,5.3,5.3,0,0,1-2.61-.61,3.76,3.76,0,0,1-1.66-1.71A5.47,5.47,0,0,1,239.14,654.16Zm3.41,0a3.9,3.9,0,0,0,.48,2.19,1,1,0,0,0,.91.43,1.07,1.07,0,0,0,.93-.43,5.24,5.24,0,0,0,0-4.38,1.05,1.05,0,0,0-.93-.44,1,1,0,0,0-.91.45A3.84,3.84,0,0,0,242.55,654.18Z" transform="translate(-42.61 -105.1)" fill="#384674"></path><path d="M324,644.17l-4.92.61a2.62,2.62,0,0,0-.64-1.46,1.61,1.61,0,0,0-1.13-.42,2,2,0,0,0-1.86,1.21,10.68,10.68,0,0,0-.72,3.74,6.35,6.35,0,0,1,1.82-1.33,5,5,0,0,1,2.16-.43,5.37,5.37,0,0,1,4,1.7,5.92,5.92,0,0,1,1.65,4.3,6.41,6.41,0,0,1-.83,3.22,5.44,5.44,0,0,1-2.31,2.2,8.08,8.08,0,0,1-3.69.75,8.79,8.79,0,0,1-4.29-.91,6.5,6.5,0,0,1-2.58-2.91,12.27,12.27,0,0,1-1-5.28c0-3.21.68-5.57,2-7.06a7.18,7.18,0,0,1,5.61-2.24,9.47,9.47,0,0,1,3.36.49,5.19,5.19,0,0,1,2,1.44A6.4,6.4,0,0,1,324,644.17Zm-9.1,7.92a3.28,3.28,0,0,0,.73,2.27,2.29,2.29,0,0,0,1.78.82,2.1,2.1,0,0,0,1.63-.74,3.24,3.24,0,0,0,.65-2.21,3.4,3.4,0,0,0-.67-2.29,2.14,2.14,0,0,0-1.69-.79,2.23,2.23,0,0,0-1.73.76A3.11,3.11,0,0,0,314.94,652.09Z" transform="translate(-42.61 -105.1)" fill="#384674"></path><path d="M328.31,640.17h11.74v3.94H332.1l-.43,2.67a8.25,8.25,0,0,1,1.64-.58,6.66,6.66,0,0,1,1.59-.2,5.94,5.94,0,0,1,4.33,1.62,5.41,5.41,0,0,1,1.66,4.06A6.85,6.85,0,0,1,340,655a5.75,5.75,0,0,1-2.43,2.43,8.5,8.5,0,0,1-4,.84,12.07,12.07,0,0,1-3-.33,6.36,6.36,0,0,1-2.13-1,6,6,0,0,1-1.43-1.5,8.22,8.22,0,0,1-.91-2.08l5-.55a3.14,3.14,0,0,0,.85,1.83,2.29,2.29,0,0,0,1.59.62,2.16,2.16,0,0,0,1.71-.78,3.55,3.55,0,0,0,.67-2.34,3.39,3.39,0,0,0-.68-2.33,2.35,2.35,0,0,0-1.81-.74,3,3,0,0,0-1.38.35,3.91,3.91,0,0,0-1.09.93l-4.21-.61Z" transform="translate(-42.61 -105.1)" fill="#384674"></path><path d="M343.07,644.54a5.37,5.37,0,0,1,.54-2.36,3.81,3.81,0,0,1,1.65-1.72,5.43,5.43,0,0,1,2.63-.6,4.78,4.78,0,0,1,3.51,1.28,5.13,5.13,0,0,1,0,6.8,4.78,4.78,0,0,1-3.51,1.28,5.43,5.43,0,0,1-2.63-.6,3.76,3.76,0,0,1-1.65-1.72A5.34,5.34,0,0,1,343.07,644.54Zm3.41,0a3.84,3.84,0,0,0,.48,2.18,1.06,1.06,0,0,0,.93.45,1,1,0,0,0,.9-.45,3.76,3.76,0,0,0,.49-2.18,3.86,3.86,0,0,0-.49-2.19,1,1,0,0,0-.9-.43,1.07,1.07,0,0,0-.93.43A3.9,3.9,0,0,0,346.48,644.56Zm11.69-4.7h2.56l-10.27,19h-2.54Zm-2.28,14.3a5.34,5.34,0,0,1,.54-2.36,3.76,3.76,0,0,1,1.65-1.72,5.42,5.42,0,0,1,2.62-.61,4.79,4.79,0,0,1,3.53,1.28,5.14,5.14,0,0,1,0,6.81,4.79,4.79,0,0,1-3.53,1.28,5.31,5.31,0,0,1-2.62-.61,3.69,3.69,0,0,1-1.65-1.71A5.34,5.34,0,0,1,355.89,654.16Zm3.41,0a3.81,3.81,0,0,0,.49,2.19,1,1,0,0,0,.91.43,1.06,1.06,0,0,0,.92-.43,5.14,5.14,0,0,0,0-4.38,1,1,0,0,0-.92-.44,1,1,0,0,0-.91.45A3.76,3.76,0,0,0,359.3,654.18Z" transform="translate(-42.61 -105.1)" fill="#384674"></path><path d="M447.54,644.17l-4.92.61a2.69,2.69,0,0,0-.65-1.46,1.59,1.59,0,0,0-1.12-.42,2,2,0,0,0-1.87,1.21,11.18,11.18,0,0,0-.72,3.74,6.35,6.35,0,0,1,1.82-1.33,5.08,5.08,0,0,1,2.16-.43,5.41,5.41,0,0,1,4,1.7,6,6,0,0,1,1.64,4.3,6.41,6.41,0,0,1-.83,3.22,5.33,5.33,0,0,1-2.31,2.2,8.08,8.08,0,0,1-3.69.75,8.81,8.81,0,0,1-4.29-.91,6.42,6.42,0,0,1-2.57-2.91,12.12,12.12,0,0,1-1-5.28c0-3.21.68-5.57,2-7.06a7.2,7.2,0,0,1,5.62-2.24,9.45,9.45,0,0,1,3.35.49,5.3,5.3,0,0,1,2.05,1.44A6.55,6.55,0,0,1,447.54,644.17Zm-9.11,7.92a3.28,3.28,0,0,0,.73,2.27,2.29,2.29,0,0,0,1.79.82,2.1,2.1,0,0,0,1.62-.74,3.24,3.24,0,0,0,.66-2.21,3.4,3.4,0,0,0-.68-2.29,2.14,2.14,0,0,0-1.69-.79,2.25,2.25,0,0,0-1.73.76A3.15,3.15,0,0,0,438.43,652.09Z" transform="translate(-42.61 -105.1)" fill="#384674"></path><path d="M449.8,649q0-5.07,1.83-7.1c1.21-1.35,3.07-2,5.56-2a8.21,8.21,0,0,1,2.95.45,5.35,5.35,0,0,1,1.88,1.15,6,6,0,0,1,1.15,1.49,7.68,7.68,0,0,1,.67,1.83,17.09,17.09,0,0,1,.5,4.15q0,4.85-1.64,7.08t-5.64,2.25a7.86,7.86,0,0,1-3.63-.72,5.78,5.78,0,0,1-2.27-2.1,7.85,7.85,0,0,1-1-2.69A18.11,18.11,0,0,1,449.8,649Zm4.9,0a11.85,11.85,0,0,0,.61,4.64,1.88,1.88,0,0,0,1.74,1.25,1.83,1.83,0,0,0,1.3-.53,3.23,3.23,0,0,0,.81-1.67,17.1,17.1,0,0,0,.26-3.56,12.44,12.44,0,0,0-.6-4.76,1.92,1.92,0,0,0-1.8-1.22,1.84,1.84,0,0,0-1.77,1.25A13.08,13.08,0,0,0,454.7,649Z" transform="translate(-42.61 -105.1)" fill="#384674"></path><path d="M466.56,644.54a5.37,5.37,0,0,1,.54-2.36,3.81,3.81,0,0,1,1.65-1.72,5.43,5.43,0,0,1,2.63-.6,4.79,4.79,0,0,1,3.52,1.28,5.16,5.16,0,0,1,0,6.8,4.79,4.79,0,0,1-3.52,1.28,5.43,5.43,0,0,1-2.63-.6,3.76,3.76,0,0,1-1.65-1.72A5.34,5.34,0,0,1,466.56,644.54Zm3.41,0a3.76,3.76,0,0,0,.49,2.18,1.16,1.16,0,0,0,1.83,0,3.84,3.84,0,0,0,.48-2.18,4,4,0,0,0-.48-2.19,1.19,1.19,0,0,0-1.83,0A3.81,3.81,0,0,0,470,644.56Zm11.69-4.7h2.57l-10.28,19h-2.54Zm-2.27,14.3a5.47,5.47,0,0,1,.53-2.36,3.81,3.81,0,0,1,1.65-1.72,5.48,5.48,0,0,1,2.62-.61,4.79,4.79,0,0,1,3.53,1.28,5.14,5.14,0,0,1,0,6.81,4.79,4.79,0,0,1-3.53,1.28,5.37,5.37,0,0,1-2.62-.61,3.74,3.74,0,0,1-1.65-1.71A5.47,5.47,0,0,1,479.39,654.16Zm3.4,0a3.9,3.9,0,0,0,.49,2.19,1,1,0,0,0,.91.43,1.05,1.05,0,0,0,.92-.43,5.14,5.14,0,0,0,0-4.38,1.16,1.16,0,0,0-1.83,0A3.84,3.84,0,0,0,482.79,654.18Z" transform="translate(-42.61 -105.1)" fill="#384674"></path><path d="M561.71,640.17h11.74v3.94h-8l-.43,2.67a8.89,8.89,0,0,1,1.63-.58,6.94,6.94,0,0,1,1.6-.2,6,6,0,0,1,4.34,1.62,5.44,5.44,0,0,1,1.66,4.06,6.87,6.87,0,0,1-.86,3.31,5.79,5.79,0,0,1-2.42,2.43,8.54,8.54,0,0,1-4,.84,11.93,11.93,0,0,1-3-.33,6.33,6.33,0,0,1-2.14-1,6.14,6.14,0,0,1-1.43-1.5,8.22,8.22,0,0,1-.91-2.08l5-.55a3,3,0,0,0,.86,1.83,2.25,2.25,0,0,0,1.58.62,2.16,2.16,0,0,0,1.71-.78,3.49,3.49,0,0,0,.67-2.34,3.34,3.34,0,0,0-.68-2.33,2.33,2.33,0,0,0-1.8-.74,3,3,0,0,0-1.39.35,4.05,4.05,0,0,0-1.09.93l-4.21-.61Z" transform="translate(-42.61 -105.1)" fill="#384674"></path><path d="M576.29,649q0-5.07,1.82-7.1t5.57-2a8.15,8.15,0,0,1,2.94.45,5.49,5.49,0,0,1,1.89,1.15,6.23,6.23,0,0,1,1.14,1.49,7.27,7.27,0,0,1,.67,1.83,16.61,16.61,0,0,1,.51,4.15q0,4.85-1.65,7.08t-5.64,2.25a7.86,7.86,0,0,1-3.63-.72,5.69,5.69,0,0,1-2.26-2.1,7.85,7.85,0,0,1-1-2.69A18.86,18.86,0,0,1,576.29,649Zm4.9,0a12.09,12.09,0,0,0,.6,4.64,1.89,1.89,0,0,0,1.74,1.25,1.85,1.85,0,0,0,1.31-.53,3.31,3.31,0,0,0,.81-1.67,17.83,17.83,0,0,0,.26-3.56,12.44,12.44,0,0,0-.6-4.76,2,2,0,0,0-1.81-1.22,1.85,1.85,0,0,0-1.77,1.25A13.14,13.14,0,0,0,581.19,649Z" transform="translate(-42.61 -105.1)" fill="#384674"></path><path d="M593,644.54a5.37,5.37,0,0,1,.54-2.36,3.78,3.78,0,0,1,1.66-1.72,5.39,5.39,0,0,1,2.62-.6,4.79,4.79,0,0,1,3.52,1.28,5.13,5.13,0,0,1,0,6.8,4.79,4.79,0,0,1-3.52,1.28,5.39,5.39,0,0,1-2.62-.6,3.74,3.74,0,0,1-1.66-1.72A5.34,5.34,0,0,1,593,644.54Zm3.41,0a3.76,3.76,0,0,0,.49,2.18,1,1,0,0,0,.92.45,1,1,0,0,0,.91-.45,3.84,3.84,0,0,0,.48-2.18,4,4,0,0,0-.48-2.19,1,1,0,0,0-.91-.43,1.05,1.05,0,0,0-.92.43A3.81,3.81,0,0,0,596.45,644.56Zm11.69-4.7h2.57l-10.27,19H597.9Zm-2.27,14.3a5.33,5.33,0,0,1,.53-2.36,3.86,3.86,0,0,1,1.65-1.72,5.45,5.45,0,0,1,2.62-.61,4.78,4.78,0,0,1,3.53,1.28,5.14,5.14,0,0,1,0,6.81,4.78,4.78,0,0,1-3.53,1.28,5.34,5.34,0,0,1-2.62-.61,3.79,3.79,0,0,1-1.65-1.71A5.33,5.33,0,0,1,605.87,654.16Zm3.41,0a3.9,3.9,0,0,0,.48,2.19,1,1,0,0,0,.91.43,1.08,1.08,0,0,0,.93-.43,5.24,5.24,0,0,0,0-4.38,1.07,1.07,0,0,0-.93-.44,1,1,0,0,0-.91.45A3.84,3.84,0,0,0,609.28,654.18Z" transform="translate(-42.61 -105.1)" fill="#384674"></path><path d="M685,654.63h-9v-4.06l9-10.71h4.31V650.8h2.23v3.83h-2.23V658H685Zm0-3.83v-5.6l-4.76,5.6Z" transform="translate(-42.61 -105.1)" fill="#384674"></path><path d="M695,640.17h11.74v3.94h-7.95l-.43,2.67a8.63,8.63,0,0,1,1.63-.58,6.81,6.81,0,0,1,1.6-.2,5.94,5.94,0,0,1,4.33,1.62,5.41,5.41,0,0,1,1.66,4.06,6.85,6.85,0,0,1-.85,3.31,5.75,5.75,0,0,1-2.43,2.43,8.47,8.47,0,0,1-4,.84,11.87,11.87,0,0,1-3-.33,6.24,6.24,0,0,1-2.14-1,6,6,0,0,1-1.43-1.5,7.88,7.88,0,0,1-.91-2.08l5-.55a3.08,3.08,0,0,0,.85,1.83,2.29,2.29,0,0,0,1.59.62,2.16,2.16,0,0,0,1.71-.78,3.55,3.55,0,0,0,.67-2.34,3.39,3.39,0,0,0-.68-2.33,2.35,2.35,0,0,0-1.81-.74,3,3,0,0,0-1.38.35,3.91,3.91,0,0,0-1.09.93l-4.21-.61Z" transform="translate(-42.61 -105.1)" fill="#384674"></path><path d="M709.8,644.54a5.5,5.5,0,0,1,.53-2.36,3.89,3.89,0,0,1,1.66-1.72,5.42,5.42,0,0,1,2.62-.6,4.77,4.77,0,0,1,3.52,1.28,5.13,5.13,0,0,1,0,6.8,4.77,4.77,0,0,1-3.52,1.28,5.42,5.42,0,0,1-2.62-.6,3.84,3.84,0,0,1-1.66-1.72A5.47,5.47,0,0,1,709.8,644.54Zm3.41,0a3.84,3.84,0,0,0,.48,2.18,1.06,1.06,0,0,0,.92.45,1,1,0,0,0,.91-.45,3.76,3.76,0,0,0,.49-2.18,3.86,3.86,0,0,0-.49-2.19,1,1,0,0,0-.91-.43,1.06,1.06,0,0,0-.92.43A3.9,3.9,0,0,0,713.21,644.56Zm11.69-4.7h2.56l-10.27,19h-2.54Zm-2.28,14.3a5.34,5.34,0,0,1,.54-2.36,3.79,3.79,0,0,1,1.64-1.72,5.49,5.49,0,0,1,2.63-.61,4.81,4.81,0,0,1,3.53,1.28,5.17,5.17,0,0,1,0,6.81,4.81,4.81,0,0,1-3.53,1.28,5.38,5.38,0,0,1-2.63-.61,3.72,3.72,0,0,1-1.64-1.71A5.34,5.34,0,0,1,722.62,654.16Zm3.41,0a3.81,3.81,0,0,0,.49,2.19,1,1,0,0,0,.91.43,1.06,1.06,0,0,0,.92-.43,5.24,5.24,0,0,0,0-4.38,1,1,0,0,0-.92-.44,1,1,0,0,0-.91.45A3.76,3.76,0,0,0,726,654.18Z" transform="translate(-42.61 -105.1)" fill="#384674"></path><path d="M833.29,644.54a5.37,5.37,0,0,1,.54-2.36,3.81,3.81,0,0,1,1.65-1.72,5.45,5.45,0,0,1,2.62-.6,4.81,4.81,0,0,1,3.53,1.28,5.16,5.16,0,0,1,0,6.8,4.81,4.81,0,0,1-3.53,1.28,5.45,5.45,0,0,1-2.62-.6,3.76,3.76,0,0,1-1.65-1.72A5.34,5.34,0,0,1,833.29,644.54Zm3.41,0a3.84,3.84,0,0,0,.48,2.18,1.07,1.07,0,0,0,.92.45,1,1,0,0,0,.92-.45,3.84,3.84,0,0,0,.48-2.18,4,4,0,0,0-.48-2.19,1.05,1.05,0,0,0-.92-.43,1.08,1.08,0,0,0-.92.43A3.9,3.9,0,0,0,836.7,644.56Zm11.69-4.7H851l-10.28,19h-2.53Zm-2.28,14.3a5.34,5.34,0,0,1,.54-2.36,3.81,3.81,0,0,1,1.65-1.72,5.45,5.45,0,0,1,2.62-.61,4.79,4.79,0,0,1,3.53,1.28,5.17,5.17,0,0,1,0,6.81,4.79,4.79,0,0,1-3.53,1.28,5.34,5.34,0,0,1-2.62-.61,3.74,3.74,0,0,1-1.65-1.71A5.34,5.34,0,0,1,846.11,654.16Zm3.42,0a3.9,3.9,0,0,0,.48,2.19,1,1,0,0,0,.91.43,1.06,1.06,0,0,0,.92-.43,5.14,5.14,0,0,0,0-4.38,1,1,0,0,0-.92-.44,1,1,0,0,0-.91.45A3.84,3.84,0,0,0,849.53,654.18Z" transform="translate(-42.61 -105.1)" fill="#384674"></path><path d="M815.24,657.76H800.59a9.26,9.26,0,0,1,1.53-4.08,20.83,20.83,0,0,1,4.79-4.51,14.16,14.16,0,0,0,2.74-2.42,2.7,2.7,0,0,0,.6-1.57,1.85,1.85,0,0,0-.59-1.37,2.26,2.26,0,0,0-3,0,3.58,3.58,0,0,0-.8,2.07l-4.89-.39a7.75,7.75,0,0,1,1.06-3.22,5,5,0,0,1,2.16-1.78,9.84,9.84,0,0,1,3.87-.61,10.68,10.68,0,0,1,4,.59,4.87,4.87,0,0,1,2.26,1.8,4.81,4.81,0,0,1,.82,2.72,5.61,5.61,0,0,1-.94,3.07,12.71,12.71,0,0,1-3.43,3.21c-1,.68-1.63,1.16-2,1.43s-.72.63-1.17,1.07h7.63Z" transform="translate(-42.61 -105.1)" fill="#384674"></path><path d="M819.3,640.2h11.58v3.89H823l-.41,2.64a8.23,8.23,0,0,1,1.61-.58,7.09,7.09,0,0,1,1.57-.19,5.85,5.85,0,0,1,4.28,1.6,5.37,5.37,0,0,1,1.64,4,6.86,6.86,0,0,1-.84,3.27,5.67,5.67,0,0,1-2.4,2.4,8.42,8.42,0,0,1-4,.82,11.73,11.73,0,0,1-3-.33,6,6,0,0,1-2.11-1,5.8,5.8,0,0,1-1.41-1.48,7.73,7.73,0,0,1-.89-2.06l4.93-.54a3,3,0,0,0,.84,1.8,2.27,2.27,0,0,0,3.26-.15,3.5,3.5,0,0,0,.66-2.31,3.33,3.33,0,0,0-.67-2.3,2.3,2.3,0,0,0-1.79-.73,2.9,2.9,0,0,0-1.36.35,3.94,3.94,0,0,0-1.08.91l-4.16-.6Z" transform="translate(-42.61 -105.1)" fill="#384674"></path><rect x="102.94" y="500.31" width="753.29" height="2.73" fill="#384674"></rect><path d="M529.51,342.4c-102.35,25-191,14.3-200.37-24.09-.66-2.64-1.92-7.47-1.9-7.55,2.22-37.16,73.33-84.11,168.42-107.32,83.51-20.33,159.16-16.81,189.27,6,6.8,5.13,11.28,11.27,13,18.35C707.29,266.15,631.89,317.48,529.51,342.4Z" transform="translate(-42.61 -105.1)" fill="#384674"></path><path d="M684.93,209.45,517.77,260.2,328.94,317.56c-.47-2.67-1.67-4.07-1.7-6.8,0-.08,0,.08,0,0,1.7-28.26,42.89-62.63,104.73-87.14a483.6,483.6,0,0,1,63.69-20.18C579.17,183.11,654.82,186.63,684.93,209.45Z" transform="translate(-42.61 -105.1)" fill="url(#linear-gradient-2)"></path><path d="M440.36,355.5l77.42-95.29L328.94,317.56S330,358.45,440.36,355.5Z" transform="translate(-42.61 -105.1)" fill="url(#linear-gradient-3)"></path><path d="M517.77,243.42,327.24,301.3a50.27,50.27,0,0,1-.73-8.14.26.26,0,0,1,0-.21c1.69-28.26,43.62-61.59,105.46-86.11Z" transform="translate(-42.61 -105.1)" fill="#384674"></path><polygon points="475.17 155.11 475.16 138.32 284.63 196.2 475.17 155.11" fill="#384674"></polygon><polygon points="475.17 155.11 475.16 138.32 284.63 196.2 284.63 205.66 475.17 155.11" fill="url(#linear-gradient-4)"></polygon><polygon points="397.75 250.4 397.75 233.17 475.16 144 475.17 155.11 397.75 250.4" fill="url(#linear-gradient-5)"></polygon><path d="M517.77,249.1,327.24,310.76s31,35,113.12,27.51Z" transform="translate(-42.61 -105.1)" fill="#384674"></path><path d="M440.36,338.27V388.6s-85.19,2.11-101.86-33l-11.26-44.89S364.29,354.79,440.36,338.27Z" transform="translate(-42.61 -105.1)" fill="#384674"></path><path d="M440.36,338.27V388.6s-85.19,2.11-101.86-33l-11.26-44.89S364.29,354.79,440.36,338.27Z" transform="translate(-42.61 -105.1)" fill="url(#linear-gradient-6)"></path><polygon points="368.78 149.47 318.73 73.84 212.01 67.73 212.17 65 320.25 71.2 320.63 71.76 371.06 147.96 368.78 149.47" fill="#384674"></polygon><path d="M246.25,181.54a11.87,11.87,0,1,1,11.87-11.86A11.88,11.88,0,0,1,246.25,181.54Zm0-21a9.14,9.14,0,1,0,9.14,9.15A9.15,9.15,0,0,0,246.25,160.53Z" transform="translate(-42.61 -105.1)" fill="#384674"></path><polygon points="485.62 102.15 483.34 100.64 534.15 23.87 534.83 23.83 642.24 17.68 642.39 20.41 535.67 26.52 485.62 102.15" fill="#384674"></polygon><path d="M693.38,134.22a11.87,11.87,0,1,1,11.87-11.87A11.88,11.88,0,0,1,693.38,134.22Zm0-21a9.14,9.14,0,1,0,9.14,9.14A9.15,9.15,0,0,0,693.38,113.21Z" transform="translate(-42.61 -105.1)" fill="#384674"></path><path d="M825,367.36a11.87,11.87,0,1,1,11.87-11.86A11.88,11.88,0,0,1,825,367.36Zm0-21a9.14,9.14,0,1,0,9.14,9.14A9.15,9.15,0,0,0,825,346.36Z" transform="translate(-42.61 -105.1)" fill="#384674"></path><polygon points="771.89 251.76 666.78 251.76 666.45 251.54 562.65 184.35 564.14 182.06 667.59 249.03 771.89 249.03 771.89 251.76" fill="#384674"></polygon><path d="M194.12,385.2A11.87,11.87,0,1,1,206,373.33,11.88,11.88,0,0,1,194.12,385.2Zm0-21a9.14,9.14,0,1,0,9.14,9.14A9.15,9.15,0,0,0,194.12,364.19Z" transform="translate(-42.61 -105.1)" fill="#384674"></path><polygon points="267.13 269.6 162.02 269.6 162.02 266.87 266.32 266.87 369.77 199.9 371.26 202.19 267.13 269.6" fill="#384674"></polygon></svg>